HIERARCHY
ROOT hip
{
	OFFSET 0.000000 0.000000 0.000000 
	CHANNELS 6 Xposition Yposition Zposition Xrotation Zrotation Yrotation
	JOINT abdomen
	{
		OFFSET 0.000000 3.402643 0.000000 
		CHANNELS 3 Xrotation Zrotation Yrotation
		JOINT chest
		{
			OFFSET 0.000000 8.438565 -0.680529 
			CHANNELS 3 Xrotation Zrotation Yrotation
			JOINT neck
			{
				OFFSET 0.000000 10.207942 -0.272212 
				CHANNELS 3 Xrotation Zrotation Yrotation
				JOINT head
				{
					OFFSET 0.000000 3.130431 0.000000 
					CHANNELS 3 Xrotation Zrotation Yrotation
					End Site
					{
						OFFSET 0.000000 3.130435 0.000000 
					}
				}
			}
			JOINT lCollar
			{
				OFFSET 3.470700 6.669187 -0.816635 
				CHANNELS 3 Yrotation Zrotation Xrotation
				JOINT lShldr
				{
					OFFSET 3.198488 0.000000 0.000000 
					CHANNELS 3 Zrotation Yrotation Xrotation
					JOINT lForeArm
					{
						OFFSET 10.139888 0.000000 0.000000 
						CHANNELS 3 Yrotation Zrotation Xrotation
						JOINT lHand
						{
							OFFSET 8.370511 0.000000 0.000000 
							CHANNELS 3 Zrotation Yrotation Xrotation
							End Site
							{
								OFFSET 4.083176 0.000000 0.000000 
							}
						}
					}
				}
			}
			JOINT rCollar
			{
				OFFSET -3.470700 6.669187 -0.816635 
				CHANNELS 3 Yrotation Zrotation Xrotation
				JOINT rShldr
				{
					OFFSET -3.198488 0.000000 0.000000 
					CHANNELS 3 Zrotation Yrotation Xrotation
					JOINT rForeArm
					{
						OFFSET -10.139888 0.000000 0.000000 
						CHANNELS 3 Yrotation Zrotation Xrotation
						JOINT rHand
						{
							OFFSET -8.370511 0.000000 0.000000 
							CHANNELS 3 Zrotation Yrotation Xrotation
							End Site
							{
								OFFSET -4.083176 0.000000 0.000000 
							}
						}
					}
				}
			}
		}
	}
	JOINT lThigh
	{
		OFFSET 5.308129 -1.633274 1.361059 
		CHANNELS 3 Xrotation Zrotation Yrotation
		JOINT lShin
		{
			OFFSET -2.041588 -20.007561 0.000000 
			CHANNELS 3 Xrotation Zrotation Yrotation
			JOINT lFoot
			{
				OFFSET 0.000000 -19.190928 -1.224953 
				CHANNELS 3 Xrotation Yrotation Zrotation
				End Site
				{
					OFFSET 0.000000 -2.449906 4.627600 
				}
			}
		}
	}
	JOINT rThigh
	{
		OFFSET -5.308129 -1.633274 1.361059 
		CHANNELS 3 Xrotation Zrotation Yrotation
		JOINT rShin
		{
			OFFSET 2.041588 -20.007561 0.000000 
			CHANNELS 3 Xrotation Zrotation Yrotation
			JOINT rFoot
			{
				OFFSET 0.000000 -19.190928 -1.224953 
				CHANNELS 3 Xrotation Yrotation Zrotation
				End Site
				{
					OFFSET 0.000000 -2.449906 4.627600 
				}
			}
		}
	}
}
MOTION
Frames: 9
Frame Time: 0.016667
10.987094 94.566719 26.983202 138.031052 -6.683465 -167.079361 57.640907 -8.024385 -15.520658 10.045868 -1.336734 -5.537827 22.614176 -4.982182 -1.821720 34.582687 -0.482407 8.896743 -16.380913 -5.776056 -0.296708 -53.179810 -31.267233 16.836788 -43.353992 5.000000 -9.137791 -26.929907 -4.919297 -22.706360 22.165886 -13.738544 0.726585 90.000000 44.801781 39.650902 34.337753 -5.000000 -38.721893 34.343727 5.370180 -45.000000 -44.599823 20.361853 26.614473 88.981010 -0.250433 2.096993 41.006172 -7.862612 -9.931964 -24.693615 2.306038 -30.468029 39.995075 6.021336 5.519295 13.039050 2.379395 32.034088 
10.722116 94.630379 26.446764 138.131256 -6.695106 -166.803329 57.451069 -7.668402 -15.161471 9.972412 -0.956162 -5.654772 22.947287 -5.916462 -2.208908 34.528355 -1.407517 9.182410 -15.958399 -5.259174 -0.270026 -55.052010 -32.575127 18.864483 -42.983158 5.000000 -10.173927 -26.027643 -4.301661 -22.747189 21.749557 -14.011597 0.743059 89.975189 44.812420 38.727139 35.352932 -5.000000 -37.953163 34.591000 4.580640 -45.000000 -44.060703 20.310122 27.034546 88.945351 -0.243773 1.942000 40.888145 -7.673975 -10.126695 -24.410088 2.033277 -30.006056 40.380566 6.415944 5.984415 13.213592 2.019358 32.260178 
10.457125 94.694054 25.910297 138.243378 -6.697052 -166.528458 57.259083 -7.310620 -14.818585 9.907946 -0.575623 -5.761887 23.295469 -6.841503 -2.609865 34.464363 -2.331038 9.480237 -15.536133 -4.742291 -0.242515 -57.011345 -33.829014 20.974072 -42.598774 5.000000 -11.220468 -25.134880 -3.687696 -22.774353 21.333305 -14.284646 0.757197 89.173157 44.797852 37.815041 36.387264 -5.000000 -37.171036 34.867359 3.799069 -45.000000 -43.541245 20.239151 27.444620 88.921715 -0.233682 1.847078 40.865520 -7.475916 -10.274374 -24.155018 1.759829 -29.527693 40.763130 6.831804 6.412434 13.416972 1.661466 32.445515 
10.085537 94.805283 25.349035 138.207367 -6.750263 -166.733200 56.884720 -6.797743 -14.115747 9.783178 -0.175609 -5.791034 23.877316 -7.325747 -2.897918 34.506390 -3.062821 9.515388 -15.553645 -4.066747 -0.217219 -58.973431 -34.807720 22.743399 -42.308678 5.000000 -12.083334 -24.848518 -3.309914 -23.622189 20.835533 -13.742019 0.717719 87.351028 44.852116 36.736736 38.264088 -5.000000 -35.584713 35.305527 2.468713 -45.000000 -42.935303 20.014000 27.869072 88.950600 -0.223940 1.844406 40.895405 -7.232151 -10.425883 -23.843994 1.368475 -29.050423 41.368603 7.251744 6.966166 13.553649 1.285605 32.466869 
9.687308 94.928406 24.781574 138.135681 -6.806405 -167.046844 56.477108 -6.238241 -13.348917 9.647660 0.234138 -5.810565 24.519701 -7.686888 -3.153228 34.579624 -3.747060 9.483320 -15.678058 -3.345037 -0.179995 -60.965332 -35.692169 24.475557 -42.040592 5.000000 -12.912431 -24.743828 -2.993011 -24.660084 20.328133 -12.991043 0.676581 85.267334 44.892498 35.619873 40.380135 -5.000000 -33.798870 35.829208 1.016339 -45.000000 -42.339600 19.750044 28.254351 89.031998 -0.224142 1.924890 40.952503 -6.967589 -10.492724 -23.527433 0.950924 -28.580313 42.012009 7.671583 7.558493 13.705536 0.855332 32.445141 
9.244337 95.067131 24.211729 138.010437 -6.887760 -167.595459 56.040043 -5.598822 -12.440438 9.464286 0.624377 -5.712951 25.232660 -7.790194 -3.327507 34.663937 -4.279592 9.264038 -15.998062 -2.545273 -0.138705 -62.984028 -36.379559 26.020742 -41.934563 5.000000 -13.615706 -24.681873 -2.929779 -25.881052 19.876211 -11.908500 0.618422 82.685196 44.863281 34.286194 42.986229 -5.000000 -31.759590 36.643673 -0.292328 -45.000000 -41.659359 19.422918 28.678944 89.076263 -0.234203 2.047220 40.954762 -6.714057 -10.565261 -23.162573 0.478652 -28.064936 42.640934 8.052967 8.130064 13.762043 0.489080 32.408894 
8.734342 95.229210 23.638395 137.804886 -6.995999 -168.468582 55.573586 -4.862438 -11.351880 9.206196 0.985440 -5.449531 26.050488 -7.477600 -3.342897 34.751198 -4.604233 8.748783 -16.611364 -1.599170 -0.089814 -64.981110 -36.833889 27.271227 -42.100952 5.000000 -14.137555 -24.672194 -3.246290 -27.348278 19.528000 -10.318850 0.532366 79.384758 44.695477 32.670994 46.323689 -5.000000 -29.328962 37.875774 -1.356373 -45.000000 -40.902935 18.976917 29.129282 89.075188 -0.263427 2.240914 40.976089 -6.471082 -10.526169 -22.742998 -0.009146 -27.488916 43.222473 8.359131 8.633551 13.769230 0.096169 32.252693 
8.224375 95.391266 23.065098 137.599915 -7.122579 -169.351395 55.133938 -4.106127 -10.258917 8.939544 1.356324 -5.176291 26.870186 -7.176023 -3.366494 34.844257 -4.929384 8.232993 -17.215725 -0.662821 -0.041290 -67.003639 -37.248184 28.534788 -42.250267 5.000000 -14.666535 -24.659042 -3.567900 -28.802101 19.183832 -8.745472 0.458578 76.108284 44.459610 31.091473 49.747280 -5.000000 -26.848581 39.142918 -2.383040 -45.000000 -40.155544 18.534370 29.576939 89.084251 -0.282983 2.452702 41.065392 -6.189452 -10.489712 -22.312883 -0.517304 -26.912857 43.799446 8.697393 9.144334 13.790154 -0.268230 32.131134 
7.624837 95.553299 22.515045 137.290878 -7.229712 -170.736771 54.649204 -3.275211 -8.777706 8.641066 1.727471 -4.727423 27.510643 -6.496722 -3.157165 34.977283 -5.046600 7.323186 -17.947834 0.341817 0.010499 -69.009048 -37.492210 29.388041 -42.958920 5.000000 -14.906672 -24.537436 -4.134425 -30.285734 19.248560 -6.873017 0.360257 72.376251 43.930733 29.376432 53.219769 -5.000000 -24.684217 40.530525 -1.026647 -45.000000 -39.264980 17.955307 30.183283 88.861214 -0.282991 2.749875 41.082455 -5.908891 -10.424527 -21.832214 -1.072086 -26.235741 44.144527 8.876226 9.469303 13.830677 -0.446422 31.868795 
